<mxfile host="app.diagrams.net" modified="2024-02-05T10:43:45.541Z" agent="Mozilla/5.0 (Windows NT 10.0; Win64; x64) AppleWebKit/537.36 (KHTML, like Gecko) Chrome/121.0.0.0 Safari/537.36" version="23.1.1" etag="diwcyuuZvtYrl6RPRX98" type="github">
  <diagram name="Page-1" id="V520C1kXvy7CFPaK5M5b">
    <mxGraphModel>
      <root>
        <mxCell id="0" />
        <mxCell id="1" parent="0" />
      </root>
    </mxGraphModel>
  </diagram>
</mxfile>
